# xmcd
#
# Track frame offsets: 
#        150
#        17618
#        38642
#        58650
#        76936
#        95467
#        109641
#        132024
#        148423
#        164881
#        177562
#        192803
#        230132
#        248553
#        268304
#        280312
#        296478
#        318581
#
# Disc length: 4541 seconds
#
# Revision: 0
# Processed by: cddbd v1.5.2PL0 Copyright (c) Steve Scherf et al.
# Submitted via: ExactAudioCopy v1.0b1
#
DISCID=0e11bb12
DTITLE=Various Artist - A Woman's Heart Then And Now [Disc 1 Of 2]
DYEAR=2011
DGENRE=
TTITLE0=Eleanor McEvoy With Mary Black - Only A Woman's Heart
TTITLE1=Dolores Keane - Caledonia
TTITLE2=Mary Black - Vanities
TTITLE3=Sharon Shannon - Blackbird
TTITLE4=Frances Black - Wall Of Tears
TTITLE5=Maura O'Connell - Summerfly
TTITLE6=Dolores Keane - The Island
TTITLE7=Eleanor McEvoy - I Hear You Breathing In
TTITLE8=Mary Black - Sonny
TTITLE9=Sharon Shannon - Coridinio
TTITLE10=Maura O'Connell - Living In These Troubled Times
TTITLE11=Frances Black - After The Ball
TTITLE12=Mary Black - Bright Blue Rose
TTITLE13=Dolores Keane - My Love Is In America
TTITLE14=Eleanor McEvoy - Look Like Me
TTITLE15=Sharon Shannon - The Three Headed Monster
TTITLE16=Frances Black - Talk To Me While I'm Listening
TTITLE17=Maura O'Connell - Mystic Lipstick
EXTD=
EXTT0=
EXTT1=
EXTT2=
EXTT3=
EXTT4=
EXTT5=
EXTT6=
EXTT7=
EXTT8=
EXTT9=
EXTT10=
EXTT11=
EXTT12=
EXTT13=
EXTT14=
EXTT15=
EXTT16=
EXTT17=
PLAYORDER=
